<?xml version="1.0" encoding="utf-8"?>
<!-- Generator: Adobe Illustrator 21.0.0, SVG Export Plug-In . SVG Version: 6.00 Build 0)  -->
<svg version="1.1" id="Layer_1" xmlns="http://www.w3.org/2000/svg" xmlns:xlink="http://www.w3.org/1999/xlink" x="0px" y="0px"
	 viewBox="0 0 300 300" style="enable-background:new 0 0 300 300;" xml:space="preserve">
<style type="text/css">
	.st0{fill:#B3B3B3;}
	.st1{fill:none;stroke:#000000;stroke-width:4;stroke-miterlimit:10;}
	.st2{fill:none;stroke:#000000;stroke-width:4;stroke-miterlimit:10;stroke-dasharray:2.9919,2.9919;}
</style>
<g>
	<rect x="1" y="1" class="st0" width="86" height="299"/>
	<path d="M86.5,1.5v298h-85V1.5H86.5 M87.5,0.5h-87v300h87V0.5L87.5,0.5z"/>
</g>
<g>
	<rect x="214" y="1" class="st0" width="86" height="299"/>
	<path d="M299.5,1.5v298h-85V1.5H299.5 M300.5,0.5h-87v300h87V0.5L300.5,0.5z"/>
</g>
<g>
	<path d="M299,1v298H1V1H299 M300,0H0v300h300V0L300,0z"/>
</g>
<g>
	<path d="M175.8,83.4h-10.9c-1.6,0-2.7-0.4-3.4-1.1c-0.7-0.7-1-1.8-1-3.4V52c0-1.6,0.3-2.7,1-3.4c0.7-0.7,1.8-1,3.4-1h11.6
		c1.7,0,3.2,0.1,4.4,0.3c1.3,0.2,2.4,0.6,3.4,1.2c0.8,0.5,1.6,1.1,2.2,1.9c0.7,0.8,1.1,1.6,1.5,2.6c0.3,0.9,0.5,1.9,0.5,3
		c0,3.6-1.8,6.2-5.4,7.9c4.7,1.5,7.1,4.4,7.1,8.7c0,2-0.5,3.8-1.5,5.4c-1,1.6-2.4,2.8-4.2,3.6c-1.1,0.5-2.3,0.8-3.8,1
		C179.3,83.3,177.7,83.4,175.8,83.4z M167.7,53v9.3h6.6c1.8,0,3.2-0.2,4.2-0.5c1-0.3,1.7-1,2.3-2c0.4-0.7,0.6-1.4,0.6-2.3
		c0-1.8-0.6-3-1.9-3.6c-1.3-0.6-3.2-0.9-5.9-0.9H167.7z M175.3,67.5h-7.5v10.4h7.8c4.9,0,7.3-1.8,7.3-5.3c0-1.8-0.6-3.1-1.9-3.9
		C179.7,67.9,177.8,67.5,175.3,67.5z"/>
</g>
<g>
	<g>
		<line class="st1" x1="214" y1="108" x2="212.5" y2="108"/>
		<line class="st2" x1="209.5" y1="108" x2="169.1" y2="108"/>
		<line class="st1" x1="167.6" y1="108" x2="166.1" y2="108"/>
		<g>
			<polygon points="152,108 171.9,99.9 167.2,108 171.9,116.1 			"/>
		</g>
	</g>
</g>
<g>
	<path d="M136.4,204.5c-0.3,0.7-0.6,1.3-0.9,1.6c-0.3,0.4-0.6,0.6-1,0.8c-0.4,0.2-0.9,0.3-1.5,0.3c-1,0-1.8-0.3-2.5-1
		c-0.7-0.7-1-1.5-1-2.3c0-0.8,0.4-2.1,1.1-3.8l9.4-23.1c0.4-1.2,0.8-2.1,1.1-2.8c0.3-0.7,0.6-1.3,1-1.9c0.4-0.6,1-1.1,1.6-1.5
		c0.7-0.4,1.5-0.6,2.5-0.6c1,0,1.8,0.2,2.5,0.6c0.7,0.4,1.2,0.9,1.6,1.5c0.4,0.6,0.8,1.4,1.2,2.3c0.4,0.9,0.7,1.7,0.9,2.4l9.2,23.2
		c0.4,0.9,0.6,1.7,0.8,2.2c0.2,0.5,0.2,1,0.2,1.5c0,0.8-0.3,1.6-1,2.3c-0.7,0.7-1.5,1-2.4,1c-1.1,0-1.8-0.3-2.3-0.9
		c-0.5-0.6-1-1.8-1.7-3.6l-1.7-4.6h-14.6l-1.7,4.5C137,203.1,136.7,203.8,136.4,204.5z M146.3,177.9l-5.4,14.8h10.7L146.3,177.9z"/>
</g>
<g>
	<g>
		<line class="st1" x1="176.5" y1="232" x2="176.5" y2="159.1"/>
		<g>
			<polygon points="176.5,145 184.6,164.9 176.5,160.2 168.3,164.9 			"/>
		</g>
	</g>
</g>
<g>
</g>
<g>
</g>
<g>
</g>
<g>
</g>
<g>
</g>
<g>
</g>
<g>
</g>
<g>
</g>
<g>
</g>
<g>
</g>
<g>
</g>
<g>
</g>
</svg>
