<?xml version="1.0" encoding="utf-8"?>
<!-- Generator: Adobe Illustrator 21.0.0, SVG Export Plug-In . SVG Version: 6.00 Build 0)  -->
<svg version="1.1" id="Layer_1" xmlns="http://www.w3.org/2000/svg" xmlns:xlink="http://www.w3.org/1999/xlink" x="0px" y="0px"
	 viewBox="0 0 300 300" style="enable-background:new 0 0 300 300;" xml:space="preserve">
<style type="text/css">
	.st0{fill:#B3B3B3;}
	.st1{fill:#FFFFFF;}
	.st2{fill:none;stroke:#000000;stroke-width:5;stroke-miterlimit:10;}
	.st3{fill:none;stroke:#000000;stroke-width:5;stroke-miterlimit:10;stroke-dasharray:4.7071,4.7071;}
</style>
<g>
	<rect x="1" y="0.6" class="st0" width="86" height="88"/>
	<path d="M86.5,0.8v87.7h-85V0.8H86.5 M87.5,0.5h-87v88.3h87V0.5L87.5,0.5z"/>
</g>
<g>
	<path d="M299,1v298H1V1H299 M300,0H0v300h300V0L300,0z"/>
</g>
<g>
	<path d="M150.4,167.9h-10.9c-1.6,0-2.7-0.4-3.4-1.1c-0.7-0.7-1-1.8-1-3.4v-26.9c0-1.6,0.3-2.7,1-3.4c0.7-0.7,1.8-1,3.4-1h11.6
		c1.7,0,3.2,0.1,4.4,0.3c1.3,0.2,2.4,0.6,3.4,1.2c0.8,0.5,1.6,1.1,2.2,1.9c0.7,0.8,1.1,1.6,1.5,2.6c0.3,0.9,0.5,1.9,0.5,3
		c0,3.6-1.8,6.2-5.4,7.9c4.7,1.5,7.1,4.4,7.1,8.7c0,2-0.5,3.8-1.5,5.4c-1,1.6-2.4,2.8-4.2,3.6c-1.1,0.5-2.3,0.8-3.8,1
		C153.9,167.8,152.3,167.9,150.4,167.9z M142.3,137.5v9.3h6.6c1.8,0,3.2-0.2,4.2-0.5s1.7-1,2.3-2c0.4-0.7,0.6-1.4,0.6-2.3
		c0-1.8-0.6-3-1.9-3.6c-1.3-0.6-3.2-0.9-5.9-0.9H142.3z M149.9,152h-7.5v10.4h7.8c4.9,0,7.3-1.8,7.3-5.3c0-1.8-0.6-3.1-1.9-3.9
		C154.3,152.4,152.4,152,149.9,152z"/>
</g>
<g>
	<path d="M122.8,282c-0.3,0.7-0.6,1.3-0.9,1.6c-0.3,0.3-0.6,0.6-1,0.8c-0.4,0.2-0.9,0.3-1.5,0.3c-1,0-1.8-0.3-2.5-1
		c-0.7-0.7-1-1.5-1-2.3c0-0.8,0.4-2,1.1-3.8l9.4-23.1c0.5-1.2,0.8-2.1,1.1-2.8c0.2-0.7,0.6-1.3,1-1.9c0.4-0.6,0.9-1.1,1.6-1.5
		c0.6-0.4,1.5-0.6,2.5-0.6s1.8,0.2,2.5,0.6c0.6,0.4,1.2,0.9,1.6,1.5s0.8,1.4,1.2,2.3c0.3,0.9,0.6,1.7,0.9,2.4l9.1,23.2
		c0.4,1,0.6,1.7,0.8,2.2c0.1,0.5,0.2,1,0.2,1.5c0,0.9-0.3,1.6-1,2.3c-0.7,0.7-1.5,1-2.4,1c-1.1,0-1.8-0.3-2.3-0.9s-1-1.8-1.7-3.6
		l-1.7-4.6h-14.6l-1.7,4.5C123.3,280.6,123,281.3,122.8,282z M132.6,255.3l-5.4,14.8h10.7L132.6,255.3z"/>
</g>
<g>
	<rect x="0.5" y="211.8" class="st0" width="86" height="88"/>
	<path d="M86,212v87.7H1V212H86 M87,211.7H0V300h87V211.7L87,211.7z"/>
</g>
<g>
	<rect x="212.5" y="0.6" class="st0" width="86" height="88"/>
	<path d="M298,0.8v87.7h-85V0.8H298 M299,0.5h-87v88.3h87V0.5L299,0.5z"/>
</g>
<g>
	<rect x="212.5" y="210.8" class="st0" width="86" height="88"/>
	<path d="M298,211v87.7h-85V211H298 M299,210.7h-87V299h87V210.7L299,210.7z"/>
</g>
<g>
	<line class="st1" x1="212.2" y1="74.1" x2="139.5" y2="74.1"/>
	<g>
		<line class="st2" x1="212.2" y1="74.1" x2="209.7" y2="74.1"/>
		<line class="st3" x1="205" y1="74.1" x2="160.2" y2="74.1"/>
		<line class="st2" x1="157.9" y1="74.1" x2="155.4" y2="74.1"/>
		<g>
			<polygon points="139.5,74.1 161.9,65 156.6,74.1 161.9,83.3 			"/>
		</g>
	</g>
</g>
<g>
	<line class="st1" x1="212.2" y1="226.6" x2="139.5" y2="226.6"/>
	<g>
		<line class="st2" x1="212.2" y1="226.6" x2="209.7" y2="226.6"/>
		<line class="st3" x1="205" y1="226.6" x2="160.2" y2="226.6"/>
		<line class="st2" x1="157.9" y1="226.6" x2="155.4" y2="226.6"/>
		<g>
			<polygon points="139.5,226.6 161.9,217.4 156.6,226.6 161.9,235.7 			"/>
		</g>
	</g>
</g>
<g>
	<g>
		<line class="st2" x1="169.5" y1="298.9" x2="169.9" y2="255.1"/>
		<g>
			<polygon points="170,238.2 179.6,262.1 169.8,256.4 160,261.9 			"/>
		</g>
	</g>
</g>
<g>
</g>
</svg>
