<?xml version="1.0" encoding="utf-8"?>
<!-- Generator: Adobe Illustrator 21.0.0, SVG Export Plug-In . SVG Version: 6.00 Build 0)  -->
<svg version="1.1" id="Layer_1" xmlns="http://www.w3.org/2000/svg" xmlns:xlink="http://www.w3.org/1999/xlink" x="0px" y="0px"
	 viewBox="0 0 300 300" style="enable-background:new 0 0 300 300;" xml:space="preserve">
<style type="text/css">
	.st0{fill:#B3B3B3;}
	.st1{fill:none;stroke:#000000;stroke-width:4;stroke-miterlimit:10;}
	.st2{fill:#020202;}
	.st3{fill:none;stroke:#000000;stroke-width:4;stroke-miterlimit:10;stroke-dasharray:3.0251,3.0251;}
</style>
<g>
	<rect x="1" y="1" class="st0" width="86" height="299"/>
	<path d="M86.5,1.5v298h-85V1.5H86.5 M87.5,0.5h-87v300h87V0.5L87.5,0.5z"/>
</g>
<g>
	<rect x="214" y="1" class="st0" width="86" height="299"/>
	<path d="M299.5,1.5v298h-85V1.5H299.5 M300.5,0.5h-87v300h87V0.5L300.5,0.5z"/>
</g>
<g>
	<path d="M299,1v298H1V1H299 M300,0H0v300h300V0L300,0z"/>
</g>
<g>
	<path d="M150.4,138.9h-10.9c-1.6,0-2.7-0.4-3.4-1.1c-0.7-0.7-1-1.8-1-3.4v-26.9c0-1.6,0.3-2.7,1-3.4s1.8-1,3.4-1h11.6
		c1.7,0,3.2,0.1,4.4,0.3c1.3,0.2,2.4,0.6,3.4,1.2c0.8,0.5,1.6,1.1,2.2,1.9c0.7,0.8,1.1,1.6,1.5,2.6c0.3,0.9,0.5,1.9,0.5,3
		c0,3.6-1.8,6.2-5.4,7.9c4.7,1.5,7.1,4.4,7.1,8.7c0,2-0.5,3.8-1.5,5.4c-1,1.6-2.4,2.8-4.2,3.6c-1.1,0.5-2.3,0.8-3.8,1
		C153.9,138.8,152.3,138.9,150.4,138.9z M142.3,108.5v9.3h6.6c1.8,0,3.2-0.2,4.2-0.5c1-0.3,1.7-1,2.3-2c0.4-0.7,0.6-1.4,0.6-2.3
		c0-1.8-0.6-3-1.9-3.6c-1.3-0.6-3.2-0.9-5.9-0.9H142.3z M149.9,123h-7.5v10.4h7.8c4.9,0,7.3-1.8,7.3-5.3c0-1.8-0.6-3.1-1.9-3.9
		C154.3,123.4,152.4,123,149.9,123z"/>
</g>
<g>
	<path d="M180.3,254.6l-1.7-4.5H164l-1.7,4.6c-0.7,1.8-1.2,3-1.7,3.6s-1.2,0.9-2.3,0.9c-0.9,0-1.7-0.3-2.4-1s-1-1.4-1-2.3
		c0-0.5,0.1-1,0.2-1.5c0.2-0.5,0.4-1.2,0.8-2.2L165,229c0.3-0.7,0.6-1.5,0.9-2.4c0.4-0.9,0.8-1.7,1.2-2.3s1-1.1,1.6-1.5
		c0.7-0.4,1.5-0.6,2.5-0.6s1.9,0.2,2.5,0.6c0.7,0.4,1.2,0.9,1.6,1.5c0.4,0.6,0.8,1.2,1,1.9c0.3,0.7,0.6,1.6,1.1,2.8l9.4,23.1
		c0.7,1.8,1.1,3,1.1,3.8s-0.3,1.6-1,2.3s-1.5,1-2.5,1c-0.6,0-1.1-0.1-1.5-0.3c-0.4-0.2-0.7-0.5-1-0.8s-0.6-0.9-0.9-1.6
		C180.8,255.8,180.5,255.1,180.3,254.6z M165.9,244.6h10.7l-5.4-14.8L165.9,244.6z"/>
</g>
<g>
	<g>
		<line class="st1" x1="140.9" y1="289.4" x2="140.9" y2="212"/>
		<g>
			<polygon points="140.9,197 151.9,218.1 140.9,213.1 129.9,218.1 			"/>
		</g>
	</g>
</g>
<g>
	<line class="st2" x1="106.2" y1="218.8" x2="105.4" y2="45.1"/>
	<g>
		<line class="st1" x1="106.1" y1="204.4" x2="106.1" y2="202.9"/>
		<line class="st3" x1="106.1" y1="199.9" x2="105.5" y2="62.3"/>
		<line class="st1" x1="105.5" y1="60.8" x2="105.4" y2="59.3"/>
		<g>
			<polygon points="106.2,218.8 114.4,198.5 106.1,203.4 97.8,198.6 			"/>
		</g>
		<g>
			<polygon points="105.4,45.1 113.6,65 105.4,60.3 97.3,65.1 			"/>
		</g>
	</g>
</g>
<g>
	<line class="st2" x1="195.2" y1="218.8" x2="194.4" y2="45.1"/>
	<g>
		<line class="st1" x1="195.1" y1="204.4" x2="195.1" y2="202.9"/>
		<line class="st3" x1="195.1" y1="199.9" x2="194.5" y2="62.3"/>
		<line class="st1" x1="194.5" y1="60.8" x2="194.4" y2="59.3"/>
		<g>
			<polygon points="195.2,218.8 203.4,198.5 195.1,203.4 186.8,198.6 			"/>
		</g>
		<g>
			<polygon points="194.4,45.1 202.6,65 194.4,60.3 186.3,65.1 			"/>
		</g>
	</g>
</g>
<g>
</g>
</svg>
