<?xml version="1.0" encoding="utf-8"?>
<!-- Generator: Adobe Illustrator 21.0.0, SVG Export Plug-In . SVG Version: 6.00 Build 0)  -->
<svg version="1.1" id="Layer_1" xmlns="http://www.w3.org/2000/svg" xmlns:xlink="http://www.w3.org/1999/xlink" x="0px" y="0px"
	 viewBox="0 0 300 300" style="enable-background:new 0 0 300 300;" xml:space="preserve">
<style type="text/css">
	.st0{fill:#B3B3B3;}
</style>
<g>
	<rect x="1" y="1" class="st0" width="86" height="299"/>
	<path d="M86.5,1.5v298h-85V1.5H86.5 M87.5,0.5h-87v300h87V0.5L87.5,0.5z"/>
</g>
<g>
	<rect x="214" y="1" class="st0" width="86" height="299"/>
	<path d="M299.5,1.5v298h-85V1.5H299.5 M300.5,0.5h-87v300h87V0.5L300.5,0.5z"/>
</g>
<g>
	<path d="M299,1v298H1V1H299 M300,0H0v300h300V0L300,0z"/>
</g>
<g>
	<g>
		<path d="M151.2,82.3h-10.9c-1.6,0-2.7-0.4-3.4-1.1c-0.7-0.7-1-1.8-1-3.4V51c0-1.6,0.3-2.7,1-3.4c0.7-0.7,1.8-1,3.4-1h11.6
			c1.7,0,3.2,0.1,4.4,0.3c1.3,0.2,2.4,0.6,3.4,1.2c0.8,0.5,1.6,1.1,2.2,1.9c0.7,0.8,1.1,1.6,1.5,2.6c0.3,0.9,0.5,1.9,0.5,3
			c0,3.6-1.8,6.2-5.4,7.9c4.7,1.5,7.1,4.4,7.1,8.7c0,2-0.5,3.8-1.5,5.4c-1,1.6-2.4,2.8-4.2,3.6c-1.1,0.5-2.3,0.8-3.8,1
			C154.7,82.2,153.1,82.3,151.2,82.3z M143.1,52v9.3h6.6c1.8,0,3.2-0.2,4.2-0.5c1-0.3,1.7-1,2.3-2c0.4-0.7,0.6-1.4,0.6-2.3
			c0-1.8-0.6-3-1.9-3.6c-1.3-0.6-3.2-0.9-5.9-0.9H143.1z M150.7,66.4h-7.5v10.4h7.8c4.9,0,7.3-1.8,7.3-5.3c0-1.8-0.6-3.1-1.9-3.9
			C155.1,66.8,153.2,66.4,150.7,66.4z"/>
	</g>
	<g>
		<path d="M137.9,140.3c0-1.5,0.5-3.1,1.5-4.7s2.4-2.9,4.3-3.9c1.9-1,4.1-1.6,6.7-1.6c2.4,0,4.4,0.4,6.3,1.3
			c1.8,0.9,3.2,2.1,4.2,3.6c1,1.5,1.5,3.1,1.5,4.9c0,1.4-0.3,2.6-0.8,3.6c-0.6,1-1.2,1.9-2,2.7s-2.2,2-4.2,3.8
			c-0.6,0.5-1,0.9-1.3,1.3c-0.3,0.4-0.6,0.7-0.7,1.1c-0.2,0.3-0.3,0.6-0.4,1c-0.1,0.3-0.2,0.9-0.4,1.7c-0.3,1.7-1.3,2.5-2.9,2.5
			c-0.8,0-1.6-0.3-2.1-0.8c-0.6-0.6-0.9-1.4-0.9-2.5c0-1.4,0.2-2.6,0.6-3.6c0.4-1,1-1.9,1.7-2.6s1.6-1.7,2.8-2.7
			c1-0.9,1.8-1.6,2.3-2.1c0.5-0.5,0.9-1,1.2-1.6c0.3-0.6,0.5-1.2,0.5-1.9c0-1.3-0.5-2.4-1.5-3.3c-1-0.9-2.2-1.3-3.7-1.3
			c-1.8,0-3.1,0.5-4,1.4s-1.6,2.2-2.1,4c-0.6,1.8-1.6,2.8-3.1,2.8c-0.9,0-1.7-0.3-2.3-1C138.2,141.8,137.9,141.1,137.9,140.3z
			 M149.8,167.1c-1,0-1.9-0.3-2.6-1c-0.7-0.6-1.1-1.5-1.1-2.7c0-1,0.4-1.9,1.1-2.6s1.6-1,2.6-1c1,0,1.9,0.3,2.6,1s1.1,1.6,1.1,2.6
			c0,1.1-0.4,2-1.1,2.7S150.7,167.1,149.8,167.1z"/>
	</g>
	<g>
		<path d="M158.8,246.3l-1.7-4.5h-14.6l-1.7,4.6c-0.7,1.8-1.2,3-1.7,3.6c-0.5,0.6-1.2,0.9-2.3,0.9c-0.9,0-1.7-0.3-2.4-1
			c-0.7-0.7-1-1.4-1-2.3c0-0.5,0.1-1,0.2-1.5c0.2-0.5,0.4-1.2,0.8-2.2l9.2-23.2c0.3-0.7,0.6-1.5,0.9-2.4c0.4-0.9,0.8-1.7,1.2-2.3
			c0.4-0.6,1-1.1,1.6-1.5c0.7-0.4,1.5-0.6,2.5-0.6c1,0,1.9,0.2,2.5,0.6s1.2,0.9,1.6,1.5c0.4,0.6,0.8,1.3,1,1.9s0.6,1.6,1.1,2.8
			l9.4,23.1c0.7,1.8,1.1,3,1.1,3.8c0,0.8-0.3,1.6-1,2.3s-1.5,1-2.5,1c-0.6,0-1.1-0.1-1.5-0.3c-0.4-0.2-0.8-0.5-1-0.8
			c-0.3-0.3-0.6-0.9-0.9-1.6C159.3,247.5,159.1,246.8,158.8,246.3z M144.5,236.3h10.7l-5.4-14.8L144.5,236.3z"/>
	</g>
</g>
<g>
</g>
<g>
</g>
<g>
</g>
<g>
</g>
<g>
</g>
<g>
</g>
<g>
</g>
<g>
</g>
<g>
</g>
<g>
</g>
<g>
</g>
<g>
</g>
</svg>
