<?xml version="1.0" encoding="utf-8"?>
<!-- Generator: Adobe Illustrator 21.0.0, SVG Export Plug-In . SVG Version: 6.00 Build 0)  -->
<svg version="1.1" id="Layer_1" xmlns="http://www.w3.org/2000/svg" xmlns:xlink="http://www.w3.org/1999/xlink" x="0px" y="0px"
	 viewBox="0 0 300 300" style="enable-background:new 0 0 300 300;" xml:space="preserve">
<style type="text/css">
	.st0{fill:#B3B3B3;}
	.st1{fill:#F9F4F5;stroke:#000000;stroke-miterlimit:10;}
	.st2{fill:none;stroke:#000000;stroke-width:5;stroke-miterlimit:10;}
</style>
<g>
	<rect y="0.6" class="st0" width="86" height="88"/>
	<path d="M85.5,0.8v87.7h-85V0.8H85.5 M86.5,0.5h-87v88.3h87V0.5L86.5,0.5z"/>
</g>
<g>
	<path d="M299,1v298H1V1H299 M300,0H0v300h300V0L300,0z"/>
</g>
<g>
	<path d="M26.2,157.2H15.3c-1.6,0-2.7-0.4-3.4-1.1c-0.7-0.7-1-1.8-1-3.4v-26.9c0-1.6,0.3-2.7,1-3.4s1.8-1,3.4-1h11.6
		c1.7,0,3.2,0.1,4.4,0.3c1.3,0.2,2.4,0.6,3.4,1.2c0.8,0.5,1.6,1.1,2.2,1.9c0.7,0.8,1.1,1.6,1.5,2.6c0.3,0.9,0.5,1.9,0.5,3
		c0,3.6-1.8,6.2-5.4,7.9c4.7,1.5,7.1,4.4,7.1,8.7c0,2-0.5,3.8-1.5,5.4c-1,1.6-2.4,2.8-4.2,3.6c-1.1,0.5-2.3,0.8-3.8,1
		C29.7,157.1,28.1,157.2,26.2,157.2z M18.1,126.8v9.3h6.6c1.8,0,3.2-0.2,4.2-0.5s1.7-1,2.3-2c0.4-0.7,0.6-1.4,0.6-2.3
		c0-1.8-0.6-3-1.9-3.6c-1.3-0.6-3.2-0.9-5.9-0.9H18.1z M25.7,141.3h-7.5v10.4H26c4.9,0,7.3-1.8,7.3-5.3c0-1.8-0.6-3.1-1.9-3.9
		C30.1,141.7,28.2,141.3,25.7,141.3z"/>
</g>
<g>
	<rect x="0.5" y="211.8" class="st0" width="86" height="88"/>
	<path d="M86,212v87.7H1V212H86 M87,211.7H0V300h87V211.7L87,211.7z"/>
</g>
<g>
	<rect x="213.5" y="0.6" class="st0" width="86" height="88"/>
	<path d="M299,0.8v87.7h-85V0.8H299 M300,0.5h-87v88.3h87V0.5L300,0.5z"/>
</g>
<g>
	<rect x="213.5" y="211.8" class="st0" width="86" height="88"/>
	<path d="M299,212v87.7h-85V212H299 M300,211.7h-87V300h87V211.7L300,211.7z"/>
</g>
<rect x="49.4" y="89.4" class="st1" width="32.1" height="6.2"/>
<rect x="49.4" y="102.5" class="st1" width="32.1" height="6.2"/>
<rect x="49.4" y="115.6" class="st1" width="32.1" height="6.2"/>
<rect x="49.4" y="128.8" class="st1" width="32.1" height="6.2"/>
<rect x="49.4" y="141.9" class="st1" width="32.1" height="6.2"/>
<rect x="49.4" y="155" class="st1" width="32.1" height="6.2"/>
<rect x="49.4" y="168.2" class="st1" width="32.1" height="6.2"/>
<rect x="49.4" y="181.5" class="st1" width="32.1" height="6.2"/>
<rect x="49.4" y="193.7" class="st1" width="32.1" height="6.2"/>
<rect x="49.4" y="205.6" class="st1" width="32.1" height="6.2"/>
<rect x="216.5" y="88.8" class="st1" width="32.1" height="6.2"/>
<rect x="216.5" y="101.9" class="st1" width="32.1" height="6.2"/>
<rect x="216.5" y="115" class="st1" width="32.1" height="6.2"/>
<rect x="216.5" y="128.2" class="st1" width="32.1" height="6.2"/>
<rect x="216.5" y="141.3" class="st1" width="32.1" height="6.2"/>
<rect x="216.5" y="154.4" class="st1" width="32.1" height="6.2"/>
<rect x="216.5" y="167.6" class="st1" width="32.1" height="6.2"/>
<rect x="216.5" y="180.8" class="st1" width="32.1" height="6.2"/>
<rect x="216.5" y="193.1" class="st1" width="32.1" height="6.2"/>
<rect x="216.5" y="205" class="st1" width="32.1" height="6.2"/>
<rect x="88.5" y="218.9" class="st1" width="6.2" height="32.1"/>
<rect x="101.6" y="219" class="st1" width="6.2" height="32.1"/>
<rect x="114.7" y="219" class="st1" width="6.2" height="32.1"/>
<rect x="127.9" y="219" class="st1" width="6.2" height="32.1"/>
<rect x="141" y="219" class="st1" width="6.2" height="32.1"/>
<rect x="154.1" y="219" class="st1" width="6.2" height="32.1"/>
<rect x="167.3" y="219" class="st1" width="6.2" height="32.1"/>
<rect x="180.6" y="219" class="st1" width="6.2" height="32.1"/>
<rect x="192.8" y="219" class="st1" width="6.2" height="32.1"/>
<rect x="204.7" y="219" class="st1" width="6.2" height="32.1"/>
<rect x="89.1" y="49.4" class="st1" width="6.2" height="32.1"/>
<rect x="102.3" y="49.5" class="st1" width="6.2" height="32.1"/>
<rect x="115.4" y="49.5" class="st1" width="6.2" height="32.1"/>
<rect x="128.5" y="49.4" class="st1" width="6.2" height="32.1"/>
<rect x="141.6" y="49.4" class="st1" width="6.2" height="32.1"/>
<rect x="154.8" y="49.5" class="st1" width="6.2" height="32.1"/>
<rect x="167.9" y="49.5" class="st1" width="6.2" height="32.1"/>
<rect x="181.2" y="49.5" class="st1" width="6.2" height="32.1"/>
<rect x="193.5" y="49.5" class="st1" width="6.2" height="32.1"/>
<g>
	<path d="M171.9,185.4l-1.7-4.5h-14.6l-1.7,4.6c-0.7,1.8-1.2,3-1.7,3.6s-1.2,0.9-2.3,0.9c-0.9,0-1.7-0.3-2.4-1s-1-1.4-1-2.3
		c0-0.5,0.1-1,0.2-1.5c0.2-0.5,0.4-1.2,0.8-2.2l9.1-23.2c0.3-0.7,0.6-1.5,0.9-2.4c0.4-0.9,0.8-1.7,1.2-2.3s1-1.1,1.6-1.5
		c0.7-0.4,1.5-0.6,2.5-0.6s1.9,0.2,2.5,0.6c0.7,0.4,1.2,0.9,1.6,1.5c0.4,0.6,0.8,1.2,1,1.9c0.3,0.7,0.6,1.6,1.1,2.8l9.4,23.1
		c0.7,1.8,1.1,3,1.1,3.8s-0.3,1.6-1,2.3c-0.7,0.7-1.5,1-2.5,1c-0.6,0-1.1-0.1-1.5-0.3c-0.4-0.2-0.7-0.5-1-0.8s-0.6-0.9-0.9-1.6
		C172.4,186.6,172.1,185.9,171.9,185.4z M157.5,175.4h10.7l-5.4-14.8L157.5,175.4z"/>
</g>
<rect x="205.4" y="49.5" class="st1" width="6.2" height="32.1"/>
<g>
	<g>
		<line class="st2" x1="65" y1="194.3" x2="64.7" y2="233.8"/>
		<g>
			<polygon points="74.7,201.3 65,195.6 55.2,201.2 65.2,177.4 			"/>
		</g>
	</g>
</g>
<g>
	<g>
		<line class="st2" x1="65.2" y1="63.7" x2="65.5" y2="103.2"/>
		<g>
			<polygon points="65.7,120.2 55.7,96.4 65.5,101.9 75.2,96.2 			"/>
		</g>
	</g>
</g>
<path class="st2" d="M142.7,262c0-36.9-2.7-66.7-6-66.7"/>
<g>
	<g>
		<path class="st2" d="M137.1,197.3c0-4-12.8-7.4-31-8.8"/>
		<g>
			<polygon points="88.5,187.9 113.8,178.8 107.4,188.7 112.9,199.1 			"/>
		</g>
	</g>
</g>
<g>
</g>
</svg>
