<?xml version="1.0" encoding="utf-8"?>
<!-- Generator: Adobe Illustrator 21.0.0, SVG Export Plug-In . SVG Version: 6.00 Build 0)  -->
<svg version="1.1" id="Layer_1" xmlns="http://www.w3.org/2000/svg" xmlns:xlink="http://www.w3.org/1999/xlink" x="0px" y="0px"
	 viewBox="0 0 300 300" style="enable-background:new 0 0 300 300;" xml:space="preserve">
<style type="text/css">
	.st0{fill:#B3B3B3;}
	.st1{fill:#F9F4F5;stroke:#000000;stroke-miterlimit:10;}
	.st2{fill:none;stroke:#000000;stroke-width:5;stroke-miterlimit:10;}
</style>
<g>
	<rect y="0.6" class="st0" width="86" height="88"/>
	<path d="M85.5,0.8v87.7h-85V0.8H85.5 M86.5,0.5h-87v88.3h87V0.5L86.5,0.5z"/>
</g>
<g>
	<path d="M299,1v298H1V1H299 M300,0H0v300h300V0L300,0z"/>
</g>
<g>
	<path d="M176.4,167.9h-10.9c-1.6,0-2.7-0.4-3.4-1.1c-0.7-0.7-1-1.8-1-3.4v-26.9c0-1.6,0.3-2.7,1-3.4c0.7-0.7,1.8-1,3.4-1h11.6
		c1.7,0,3.2,0.1,4.4,0.3c1.3,0.2,2.4,0.6,3.4,1.2c0.8,0.5,1.6,1.1,2.2,1.9c0.7,0.8,1.1,1.6,1.5,2.6c0.3,0.9,0.5,1.9,0.5,3
		c0,3.6-1.8,6.2-5.4,7.9c4.7,1.5,7.1,4.4,7.1,8.7c0,2-0.5,3.8-1.5,5.4c-1,1.6-2.4,2.8-4.2,3.6c-1.1,0.5-2.3,0.8-3.8,1
		C179.9,167.8,178.3,167.9,176.4,167.9z M168.3,137.5v9.3h6.6c1.8,0,3.2-0.2,4.2-0.5s1.7-1,2.3-2c0.4-0.7,0.6-1.4,0.6-2.3
		c0-1.8-0.6-3-1.9-3.6c-1.3-0.6-3.2-0.9-5.9-0.9H168.3z M175.9,152h-7.5v10.4h7.8c4.9,0,7.3-1.8,7.3-5.3c0-1.8-0.6-3.1-1.9-3.9
		C180.3,152.4,178.4,152,175.9,152z"/>
</g>
<g>
	<rect x="0.5" y="211.8" class="st0" width="86" height="88"/>
	<path d="M86,212v87.7H1V212H86 M87,211.7H0V300h87V211.7L87,211.7z"/>
</g>
<g>
	<rect x="213.5" y="0.6" class="st0" width="86" height="88"/>
	<path d="M299,0.8v87.7h-85V0.8H299 M300,0.5h-87v88.3h87V0.5L300,0.5z"/>
</g>
<g>
	<rect x="213.5" y="211.8" class="st0" width="86" height="88"/>
	<path d="M299,212v87.7h-85V212H299 M300,211.7h-87V300h87V211.7L300,211.7z"/>
</g>
<rect x="49.4" y="89.4" class="st1" width="32.1" height="6.2"/>
<rect x="49.4" y="102.5" class="st1" width="32.1" height="6.2"/>
<rect x="49.4" y="115.6" class="st1" width="32.1" height="6.2"/>
<rect x="49.4" y="128.8" class="st1" width="32.1" height="6.2"/>
<rect x="49.4" y="141.9" class="st1" width="32.1" height="6.2"/>
<rect x="49.4" y="155" class="st1" width="32.1" height="6.2"/>
<rect x="49.4" y="168.2" class="st1" width="32.1" height="6.2"/>
<rect x="49.4" y="181.5" class="st1" width="32.1" height="6.2"/>
<rect x="49.4" y="193.7" class="st1" width="32.1" height="6.2"/>
<rect x="49.4" y="205.6" class="st1" width="32.1" height="6.2"/>
<rect x="216.5" y="88.8" class="st1" width="32.1" height="6.2"/>
<rect x="216.5" y="101.9" class="st1" width="32.1" height="6.2"/>
<rect x="216.5" y="115" class="st1" width="32.1" height="6.2"/>
<rect x="216.5" y="128.2" class="st1" width="32.1" height="6.2"/>
<rect x="216.5" y="141.3" class="st1" width="32.1" height="6.2"/>
<rect x="216.5" y="154.4" class="st1" width="32.1" height="6.2"/>
<rect x="216.5" y="167.6" class="st1" width="32.1" height="6.2"/>
<rect x="216.5" y="180.8" class="st1" width="32.1" height="6.2"/>
<rect x="216.5" y="193.1" class="st1" width="32.1" height="6.2"/>
<rect x="216.5" y="205" class="st1" width="32.1" height="6.2"/>
<rect x="75.6" y="231.9" transform="matrix(4.489304e-11 -1 1 4.489304e-11 -143.4095 326.6412)" class="st1" width="32.1" height="6.2"/>
<rect x="88.7" y="231.9" transform="matrix(4.489304e-11 -1 1 4.489304e-11 -130.2804 339.7703)" class="st1" width="32.1" height="6.2"/>
<rect x="101.8" y="231.9" transform="matrix(4.489304e-11 -1 1 4.489304e-11 -117.1514 352.8993)" class="st1" width="32.1" height="6.2"/>
<rect x="114.9" y="231.9" transform="matrix(4.489304e-11 -1 1 4.489304e-11 -104.0223 366.0284)" class="st1" width="32.1" height="6.2"/>
<rect x="128.1" y="231.9" transform="matrix(4.492146e-11 -1 1 4.492146e-11 -90.8932 379.1574)" class="st1" width="32.1" height="6.2"/>
<rect x="141.2" y="231.9" transform="matrix(4.492146e-11 -1 1 4.492146e-11 -77.7642 392.2865)" class="st1" width="32.1" height="6.2"/>
<rect x="154.3" y="231.9" transform="matrix(4.492146e-11 -1 1 4.492146e-11 -64.6351 405.4156)" class="st1" width="32.1" height="6.2"/>
<rect x="167.6" y="231.9" transform="matrix(4.492146e-11 -1 1 4.492146e-11 -51.3439 418.7068)" class="st1" width="32.1" height="6.2"/>
<rect x="179.9" y="231.9" transform="matrix(4.492146e-11 -1 1 4.492146e-11 -39.0526 430.998)" class="st1" width="32.1" height="6.2"/>
<rect x="191.8" y="231.9" transform="matrix(4.492146e-11 -1 1 4.492146e-11 -27.1529 442.8978)" class="st1" width="32.1" height="6.2"/>
<rect x="76.2" y="62.4" transform="matrix(4.489304e-11 -1 1 4.489304e-11 26.7318 157.724)" class="st1" width="32.1" height="6.2"/>
<rect x="89.3" y="62.4" transform="matrix(4.489304e-11 -1 1 4.489304e-11 39.8609 170.8531)" class="st1" width="32.1" height="6.2"/>
<rect x="102.4" y="62.4" transform="matrix(4.489304e-11 -1 1 4.489304e-11 52.9899 183.9821)" class="st1" width="32.1" height="6.2"/>
<rect x="115.6" y="62.4" transform="matrix(4.489304e-11 -1 1 4.489304e-11 66.119 197.1112)" class="st1" width="32.1" height="6.2"/>
<rect x="128.7" y="62.4" transform="matrix(4.492146e-11 -1 1 4.492146e-11 79.248 210.2402)" class="st1" width="32.1" height="6.2"/>
<rect x="141.8" y="62.4" transform="matrix(4.492146e-11 -1 1 4.492146e-11 92.3771 223.3693)" class="st1" width="32.1" height="6.2"/>
<rect x="154.9" y="62.4" transform="matrix(4.492146e-11 -1 1 4.492146e-11 105.5062 236.4984)" class="st1" width="32.1" height="6.2"/>
<rect x="168.2" y="62.4" transform="matrix(4.492146e-11 -1 1 4.492146e-11 118.7974 249.7896)" class="st1" width="32.1" height="6.2"/>
<rect x="180.5" y="62.4" transform="matrix(4.492146e-11 -1 1 4.492146e-11 131.0887 262.0808)" class="st1" width="32.1" height="6.2"/>
<g>
	<g>
		<line class="st2" x1="124.4" y1="298.9" x2="124.1" y2="259.3"/>
		<g>
			<polygon points="124,242.4 133.9,266.2 124.1,260.6 114.4,266.4 			"/>
		</g>
	</g>
</g>
<g>
	<path d="M175.4,288.1l-1.7-4.5h-14.6l-1.7,4.6c-0.7,1.8-1.2,3-1.7,3.6s-1.2,0.9-2.3,0.9c-0.9,0-1.7-0.3-2.4-1c-0.7-0.7-1-1.4-1-2.3
		c0-0.5,0.1-1,0.2-1.5c0.2-0.5,0.4-1.2,0.8-2.2l9.1-23.2c0.3-0.7,0.6-1.5,0.9-2.4c0.4-0.9,0.8-1.7,1.2-2.3s1-1.1,1.6-1.5
		c0.7-0.4,1.5-0.6,2.5-0.6s1.9,0.2,2.5,0.6c0.7,0.4,1.2,0.9,1.6,1.5c0.4,0.6,0.8,1.2,1,1.9c0.3,0.7,0.6,1.6,1.1,2.8l9.4,23.1
		c0.7,1.8,1.1,3,1.1,3.8c0,0.8-0.3,1.6-1,2.3c-0.7,0.7-1.5,1-2.5,1c-0.6,0-1.1-0.1-1.5-0.3c-0.4-0.2-0.7-0.5-1-0.8
		c-0.3-0.3-0.6-0.9-0.9-1.6C175.9,289.3,175.6,288.6,175.4,288.1z M161,278.1h10.7l-5.4-14.8L161,278.1z"/>
</g>
<rect x="192.4" y="62.4" transform="matrix(4.492146e-11 -1 1 4.492146e-11 142.9884 273.9806)" class="st1" width="32.1" height="6.2"/>
<g>
	<g>
		<line class="st2" x1="212.7" y1="230.2" x2="173.2" y2="230.5"/>
		<g>
			<polygon points="156.3,230.7 180.1,220.7 174.5,230.5 180.2,240.2 			"/>
		</g>
	</g>
</g>
<g>
	<g>
		<line class="st2" x1="212.1" y1="68.5" x2="172.6" y2="68.8"/>
		<g>
			<polygon points="155.6,69 179.4,59 173.9,68.8 179.6,78.5 			"/>
		</g>
	</g>
</g>
<g>
</g>
</svg>
