<?xml version="1.0" encoding="utf-8"?>
<!-- Generator: Adobe Illustrator 21.0.0, SVG Export Plug-In . SVG Version: 6.00 Build 0)  -->
<svg version="1.1" id="Layer_1" xmlns="http://www.w3.org/2000/svg" xmlns:xlink="http://www.w3.org/1999/xlink" x="0px" y="0px"
	 viewBox="0 0 300 300" style="enable-background:new 0 0 300 300;" xml:space="preserve">
<style type="text/css">
	.st0{fill:#B3B3B3;}
	.st1{fill:none;stroke:#000000;stroke-width:4;stroke-miterlimit:10;}
	.st2{fill:none;stroke:#000000;stroke-width:6;stroke-miterlimit:10;}
</style>
<g>
	<rect x="1" y="1" class="st0" width="86" height="299"/>
	<path d="M86.5,1.5v298h-85V1.5H86.5 M87.5,0.5h-87v300h87V0.5L87.5,0.5z"/>
</g>
<g>
	<rect x="214" y="1" class="st0" width="86" height="299"/>
	<path d="M299.5,1.5v298h-85V1.5H299.5 M300.5,0.5h-87v300h87V0.5L300.5,0.5z"/>
</g>
<g>
	<path d="M299,1v298H1V1H299 M300,0H0v300h300V0L300,0z"/>
</g>
<g>
	<path d="M158.9,123.6l-1.7-4.5h-14.6l-1.7,4.6c-0.7,1.8-1.2,3-1.7,3.6s-1.2,0.9-2.3,0.9c-0.9,0-1.7-0.3-2.4-1s-1-1.4-1-2.3
		c0-0.5,0.1-1,0.2-1.5c0.2-0.5,0.4-1.2,0.8-2.2l9.1-23.2c0.3-0.7,0.6-1.5,0.9-2.4c0.4-0.9,0.8-1.7,1.2-2.3s1-1.1,1.6-1.5
		c0.7-0.4,1.5-0.6,2.5-0.6s1.9,0.2,2.5,0.6c0.7,0.4,1.2,0.9,1.6,1.5c0.4,0.6,0.8,1.2,1,1.9c0.3,0.7,0.6,1.6,1.1,2.8l9.4,23.1
		c0.7,1.8,1.1,3,1.1,3.8s-0.3,1.6-1,2.3s-1.5,1-2.5,1c-0.6,0-1.1-0.1-1.5-0.3c-0.4-0.2-0.7-0.5-1-0.8s-0.6-0.9-0.9-1.6
		C159.4,124.8,159.1,124.1,158.9,123.6z M144.5,113.6h10.7l-5.4-14.8L144.5,113.6z"/>
</g>
<path class="st1" d="M172.5,156.9c0.6,8.2-5.9,15.3-14.5,15.8s-16.1-5.7-16.7-13.9c-0.6-8.2,5.9-15.3,14.5-15.8
	S171.9,148.7,172.5,156.9z"/>
<path class="st1" d="M139.7,188.1c0.6,8.2-5.9,15.3-14.5,15.8s-16.1-5.7-16.7-13.9c-0.6-8.2,5.9-15.3,14.5-15.8
	S139.1,179.8,139.7,188.1z"/>
<line class="st1" x1="135.2" y1="174.5" x2="156" y2="203.9"/>
<line class="st1" x1="118.7" y1="190.7" x2="151" y2="193.5"/>
<line class="st1" x1="137.3" y1="176.6" x2="122" y2="190.1"/>
<line class="st1" x1="156" y1="156.1" x2="175.5" y2="183"/>
<line class="st1" x1="149" y1="195.6" x2="169.7" y2="173.1"/>
<line class="st1" x1="136.6" y1="175.8" x2="169.7" y2="173.1"/>
<line class="st1" x1="173.1" y1="182.5" x2="181.3" y2="176.1"/>
<line class="st2" x1="162.6" y1="197.6" x2="152.9" y2="205.3"/>
</svg>
