<?xml version="1.0" encoding="utf-8"?>
<!-- Generator: Adobe Illustrator 21.0.0, SVG Export Plug-In . SVG Version: 6.00 Build 0)  -->
<svg version="1.1" id="Layer_1" xmlns="http://www.w3.org/2000/svg" xmlns:xlink="http://www.w3.org/1999/xlink" x="0px" y="0px"
	 viewBox="0 0 300 300" style="enable-background:new 0 0 300 300;" xml:space="preserve">
<style type="text/css">
	.st0{fill:#B3B3B3;}
	.st1{fill:none;stroke:#000000;stroke-width:4;stroke-miterlimit:10;}
</style>
<g>
	<rect x="1" y="1" class="st0" width="86" height="299"/>
	<path d="M86.5,1.5v298h-85V1.5H86.5 M87.5,0.5h-87v300h87V0.5L87.5,0.5z"/>
</g>
<g>
	<rect x="214" y="1" class="st0" width="86" height="299"/>
	<path d="M299.5,1.5v298h-85V1.5H299.5 M300.5,0.5h-87v300h87V0.5L300.5,0.5z"/>
</g>
<g>
	<path d="M299,1v298H1V1H299 M300,0H0v300h300V0L300,0z"/>
</g>
<g>
	<path d="M165.9,219.1l-1.7-4.5h-14.6l-1.7,4.6c-0.7,1.8-1.2,3-1.7,3.6s-1.2,0.9-2.3,0.9c-0.9,0-1.7-0.3-2.4-1s-1-1.4-1-2.3
		c0-0.5,0.1-1,0.2-1.5c0.2-0.5,0.4-1.2,0.8-2.2l9.1-23.2c0.3-0.7,0.6-1.5,0.9-2.4c0.4-0.9,0.8-1.7,1.2-2.3s1-1.1,1.6-1.5
		c0.7-0.4,1.5-0.6,2.5-0.6s1.9,0.2,2.5,0.6c0.7,0.4,1.2,0.9,1.6,1.5c0.4,0.6,0.8,1.2,1,1.9c0.3,0.7,0.6,1.6,1.1,2.8l9.4,23.1
		c0.7,1.8,1.1,3,1.1,3.8s-0.3,1.6-1,2.3s-1.5,1-2.5,1c-0.6,0-1.1-0.1-1.5-0.3s-0.7-0.5-1-0.8s-0.6-0.9-0.9-1.6
		C166.4,220.3,166.1,219.6,165.9,219.1z M151.5,209.1h10.7l-5.4-14.8L151.5,209.1z"/>
</g>
<g>
	<g>
		<line class="st1" x1="127.5" y1="249.1" x2="127.5" y2="174.7"/>
		<g>
			<polygon points="127.5,158.6 136.7,181.3 127.5,175.9 118.2,181.3 			"/>
		</g>
	</g>
</g>
<rect x="98.6" y="109" class="st1" width="13.1" height="13.1"/>
<rect x="114.4" y="109" class="st1" width="13.1" height="13.1"/>
<rect x="129.9" y="109" class="st1" width="13.1" height="13.1"/>
<rect x="146.5" y="109" class="st1" width="13.1" height="13.1"/>
<rect x="162.9" y="109" class="st1" width="13.1" height="13.1"/>
<g id="Icons_with_numbers_1_">
	<g id="Group_1_" transform="translate(-288.000000, -336.000000)">
		<path id="Triangle_185_1_" d="M450.9,458.4l6,15.7h-12L450.9,458.4z"/>
	</g>
</g>
<g id="Icons_with_numbers_2_">
	<g id="Group_2_" transform="translate(-288.000000, -336.000000)">
		<path id="Triangle_185_2_" d="M402.4,458.4l6,15.7h-12L402.4,458.4z"/>
	</g>
</g>
<g>
</g>
</svg>
