<?xml version="1.0" encoding="utf-8"?>
<!-- Generator: Adobe Illustrator 21.0.0, SVG Export Plug-In . SVG Version: 6.00 Build 0)  -->
<svg version="1.1" id="Layer_1" xmlns="http://www.w3.org/2000/svg" xmlns:xlink="http://www.w3.org/1999/xlink" x="0px" y="0px"
	 viewBox="0 0 300 300" style="enable-background:new 0 0 300 300;" xml:space="preserve">
<style type="text/css">
	.st0{fill:#B3B3B3;}
	.st1{fill:none;stroke:#000000;stroke-width:4;stroke-miterlimit:10;}
	.st2{fill:none;stroke:#000000;stroke-width:4;stroke-miterlimit:10;stroke-dasharray:7.5015,7.5015;}
</style>
<g>
	<rect x="1" y="1" class="st0" width="86" height="299"/>
	<path d="M86.5,1.5v298h-85V1.5H86.5 M87.5,0.5h-87v300h87V0.5L87.5,0.5z"/>
</g>
<g>
	<rect x="214" y="1" class="st0" width="86" height="299"/>
	<path d="M299.5,1.5v298h-85V1.5H299.5 M300.5,0.5h-87v300h87V0.5L300.5,0.5z"/>
</g>
<g>
	<path d="M299,1v298H1V1H299 M300,0H0v300h300V0L300,0z"/>
</g>
<g>
	<path d="M158.9,244.6l-1.7-4.5h-14.6l-1.7,4.6c-0.7,1.8-1.2,3-1.7,3.6s-1.2,0.9-2.3,0.9c-0.9,0-1.7-0.3-2.4-1c-0.7-0.7-1-1.4-1-2.3
		c0-0.5,0.1-1,0.2-1.5c0.2-0.5,0.4-1.2,0.8-2.2l9.1-23.2c0.3-0.7,0.6-1.5,0.9-2.4c0.4-0.9,0.8-1.7,1.2-2.3s1-1.1,1.6-1.5
		c0.7-0.4,1.5-0.6,2.5-0.6s1.9,0.2,2.5,0.6c0.7,0.4,1.2,0.9,1.6,1.5c0.4,0.6,0.8,1.2,1,1.9c0.3,0.7,0.6,1.6,1.1,2.8l9.4,23.1
		c0.7,1.8,1.1,3,1.1,3.8s-0.3,1.6-1,2.3c-0.7,0.7-1.5,1-2.5,1c-0.6,0-1.1-0.1-1.5-0.3s-0.7-0.5-1-0.8c-0.3-0.3-0.6-0.9-0.9-1.6
		C159.4,245.8,159.1,245.1,158.9,244.6z M144.5,234.6h10.7l-5.4-14.8L144.5,234.6z"/>
</g>
<g>
	<g>
		<line class="st1" x1="120.4" y1="268" x2="120.4" y2="188"/>
		<g>
			<polygon points="120.4,171.9 129.7,194.6 120.4,189.2 111.2,194.6 			"/>
		</g>
	</g>
</g>
<g>
	<g>
		<line class="st1" x1="105.2" y1="113.8" x2="108.7" y2="113.8"/>
		<line class="st2" x1="116.2" y1="113.8" x2="172.5" y2="113.8"/>
		<line class="st1" x1="176.2" y1="113.8" x2="179.7" y2="113.8"/>
		<g>
			<polygon points="195.8,113.8 173.1,123.1 178.5,113.8 173.1,104.6 			"/>
		</g>
	</g>
</g>
<g>
	<path d="M136,70.7c2.8-4.7,11.3-9.7,11.3-9.7l1.4-2.5l1,2.7l1.5-2.7l0.3,3.7c1.6,1.3,1.3,3.1,1.3,3.1l1.3,1.9c1.3,2.1,1,3.5,1,3.5
		c-2.1,1.7-3.6-0.2-3.6-0.2c-1.3-0.5-2.2-1.8-2.2-1.8c-2.6-0.1-2.6,3.2-2.6,3.2l-0.5,9.3c0,0-0.2-2.1,0.1-0.2c0,0.1,0,0.3,0.1,0.4
		c0.4,2.6-2.7,6.3-2.7,6.3c-0.6,2.7-2.1,7.7-2.1,7.7c-0.4,1.9,0.1,5.3,0.1,5.3c1.2,0.7,1.8,2.8,1.8,2.8c0.1,0.9-1.3,0.5-1.3,0.5
		c1,0.5-0.1,1-0.1,1h-3c-1.3-0.1-0.5-1.8-0.5-1.8c-0.7-1,0.2-2.4,0.2-2.4l-0.1-3.9c-1-0.9-0.7-5.5-0.7-5.5c-1.4-2.2-0.6-5.4-0.6-5.4
		c-4.2,1.3-10.3,0.2-10.3,0.2c-0.5,2.2-3.6,4.7-3.6,4.7c-1.9,1.9,1.8,4.9,1.8,4.9c2,0.4,2.3,3.2,2.3,3.2c2.6,2.2-0.6,2.1-0.6,2.1
		c-3.4,0-2.5-1.5-2.5-1.5c-0.2-0.7,0.9-1.1,0.9-1.1c-0.7-0.5-0.5-1.4-0.5-1.4c-1-0.3-5-3.7-5-3.7c-2.2-1.4,1-4.2,1-4.2
		c0.8-2.8-1.1-2.6-1.1-2.6c-1,2.5-5.6,3.4-5.6,3.4c-0.9,0.2-2,2.4-2,2.4c-0.9,6.9-0.4,6.7,1.2,8.2c2.3,2.2-1.3,2.4-1.3,2.4
		c-3.8,0-1.8-2.3-1.8-2.3c0.7-0.9,0.4-1.3,0.4-1.3c-1.3-1.3-0.5-7.3-0.5-7.3c-0.7-3.5,2.2-4.3,2.2-4.3c3.3-1.3,2.5-3.7,2.5-3.7
		c-2.1-3.7-0.5-6.3-0.5-6.3c-1.6,0.9-1.1,2.7-1.1,2.7c-2.6,8.5-8.1,6.9-8.1,6.9c3.6-1.1,4-7.3,4-7.3c1.9-7.6,7.9-5.9,7.9-5.9
		c4.1-1.9,8.6-0.2,8.6-0.2C133,74.9,136,70.7,136,70.7z"/>
</g>
<g>
</g>
</svg>
