<?xml version="1.0" encoding="utf-8"?>
<!-- Generator: Adobe Illustrator 21.0.0, SVG Export Plug-In . SVG Version: 6.00 Build 0)  -->
<svg version="1.1" id="Layer_1" xmlns="http://www.w3.org/2000/svg" xmlns:xlink="http://www.w3.org/1999/xlink" x="0px" y="0px"
	 viewBox="0 0 300 300" style="enable-background:new 0 0 300 300;" xml:space="preserve">
<style type="text/css">
	.st0{fill:#B3B3B3;}
	.st1{fill:none;stroke:#000000;stroke-width:5;stroke-miterlimit:10;}
</style>
<g>
	<rect y="0.6" class="st0" width="86" height="88"/>
	<path d="M85.5,0.8v87.7h-85V0.8H85.5 M86.5,0.5h-87v88.3h87V0.5L86.5,0.5z"/>
</g>
<g>
	<path d="M299,1v298H1V1H299 M300,0H0v300h300V0L300,0z"/>
</g>
<g>
	<rect x="0.5" y="211.8" class="st0" width="86" height="88"/>
	<path d="M86,212v87.7H1V212H86 M87,211.7H0V300h87V211.7L87,211.7z"/>
</g>
<g>
	<rect x="213.5" y="0.6" class="st0" width="86" height="88"/>
	<path d="M299,0.8v87.7h-85V0.8H299 M300,0.5h-87v88.3h87V0.5L300,0.5z"/>
</g>
<g>
	<rect x="213.5" y="211.8" class="st0" width="86" height="88"/>
	<path d="M299,212v87.7h-85V212H299 M300,211.7h-87V300h87V211.7L300,211.7z"/>
</g>
<g>
	<path d="M174.7,229.1l-1.7-4.5h-14.6l-1.7,4.6c-0.7,1.8-1.2,3-1.7,3.6s-1.2,0.9-2.3,0.9c-0.9,0-1.7-0.3-2.4-1s-1-1.4-1-2.3
		c0-0.5,0.1-1,0.2-1.5c0.2-0.5,0.4-1.2,0.8-2.2l9.1-23.2c0.3-0.7,0.6-1.5,0.9-2.4c0.4-0.9,0.8-1.7,1.2-2.3s1-1.1,1.6-1.5
		c0.7-0.4,1.5-0.6,2.5-0.6s1.9,0.2,2.5,0.6c0.7,0.4,1.2,0.9,1.6,1.5c0.4,0.6,0.8,1.2,1,1.9c0.3,0.7,0.6,1.6,1.1,2.8l9.4,23.1
		c0.7,1.8,1.1,3,1.1,3.8s-0.3,1.6-1,2.3c-0.7,0.7-1.5,1-2.5,1c-0.6,0-1.1-0.1-1.5-0.3c-0.4-0.2-0.7-0.5-1-0.8s-0.6-0.9-0.9-1.6
		C175.2,230.3,174.9,229.6,174.7,229.1z M160.3,219.1H171l-5.4-14.8L160.3,219.1z"/>
</g>
<g>
	<g>
		<line class="st1" x1="137.6" y1="251.8" x2="138.2" y2="169.7"/>
		<g>
			<polygon points="138.3,152.1 148.3,177 138.2,171 128,176.9 			"/>
		</g>
	</g>
</g>
<g>
	<path d="M218.1,144.7h-10.9c-1.6,0-2.7-0.4-3.4-1.1c-0.7-0.7-1-1.8-1-3.4v-26.9c0-1.6,0.3-2.7,1-3.4c0.7-0.7,1.8-1,3.4-1h11.6
		c1.7,0,3.2,0.1,4.4,0.3c1.3,0.2,2.4,0.6,3.4,1.2c0.8,0.5,1.6,1.1,2.2,1.9c0.7,0.8,1.1,1.6,1.5,2.6c0.3,0.9,0.5,1.9,0.5,3
		c0,3.6-1.8,6.2-5.4,7.9c4.7,1.5,7.1,4.4,7.1,8.7c0,2-0.5,3.8-1.5,5.4c-1,1.6-2.4,2.8-4.2,3.6c-1.1,0.5-2.3,0.8-3.8,1
		C221.6,144.6,220,144.7,218.1,144.7z M210,114.3v9.3h6.6c1.8,0,3.2-0.2,4.2-0.5s1.7-1,2.3-2c0.4-0.7,0.6-1.4,0.6-2.3
		c0-1.8-0.6-3-1.9-3.6c-1.3-0.6-3.2-0.9-5.9-0.9H210z M217.6,128.8H210v10.4h7.8c4.9,0,7.3-1.8,7.3-5.3c0-1.8-0.6-3.1-1.9-3.9
		C222,129.2,220.1,128.8,217.6,128.8z"/>
</g>
<g>
	<g>
		<line class="st1" x1="244.8" y1="155.8" x2="176.5" y2="155.3"/>
		<g>
			<polygon points="158.8,155.2 183.8,145.2 177.8,155.3 183.6,165.5 			"/>
		</g>
	</g>
</g>
<g>
</g>
</svg>
