<?xml version="1.0" encoding="utf-8"?>
<!-- Generator: Adobe Illustrator 21.0.0, SVG Export Plug-In . SVG Version: 6.00 Build 0)  -->
<svg version="1.1" id="Layer_1" xmlns="http://www.w3.org/2000/svg" xmlns:xlink="http://www.w3.org/1999/xlink" x="0px" y="0px"
	 viewBox="0 0 300 300" style="enable-background:new 0 0 300 300;" xml:space="preserve">
<style type="text/css">
	.st0{fill:#B3B3B3;}
	.st1{fill:none;stroke:#000000;stroke-width:5;stroke-miterlimit:10;}
</style>
<g>
	<rect x="1" y="1" class="st0" width="86" height="299"/>
	<path d="M86.5,1.5v298h-85V1.5H86.5 M87.5,0.5h-87v300h87V0.5L87.5,0.5z"/>
</g>
<g>
	<rect x="214" y="1" class="st0" width="86" height="299"/>
	<path d="M299.5,1.5v298h-85V1.5H299.5 M300.5,0.5h-87v300h87V0.5L300.5,0.5z"/>
</g>
<g>
	<path d="M299,1v298H1V1H299 M300,0H0v300h300V0L300,0z"/>
</g>
<g>
	<path d="M122.3,235.9l-1.7-4.5H106l-1.7,4.6c-0.7,1.8-1.2,3-1.7,3.6s-1.2,0.9-2.3,0.9c-0.9,0-1.7-0.3-2.4-1s-1-1.4-1-2.3
		c0-0.5,0.1-1,0.2-1.5c0.2-0.5,0.4-1.2,0.8-2.2l9.1-23.2c0.3-0.7,0.6-1.5,0.9-2.4c0.4-0.9,0.8-1.7,1.2-2.3s1-1.1,1.6-1.5
		c0.7-0.4,1.5-0.6,2.5-0.6s1.9,0.2,2.5,0.6c0.7,0.4,1.2,0.9,1.6,1.5c0.4,0.6,0.8,1.2,1,1.9c0.3,0.7,0.6,1.6,1.1,2.8l9.4,23.1
		c0.7,1.8,1.1,3,1.1,3.8s-0.3,1.6-1,2.3s-1.5,1-2.5,1c-0.6,0-1.1-0.1-1.5-0.3s-0.7-0.5-1-0.8s-0.6-0.9-0.9-1.6
		C122.8,237.1,122.5,236.4,122.3,235.9z M107.9,225.9h10.7l-5.4-14.8L107.9,225.9z"/>
</g>
<g>
	<path d="M162.5,73h-10.9c-1.6,0-2.7-0.4-3.4-1.1c-0.7-0.7-1-1.8-1-3.4V41.7c0-1.6,0.3-2.7,1-3.4c0.7-0.7,1.8-1,3.4-1h11.6
		c1.7,0,3.2,0.1,4.4,0.3c1.3,0.2,2.4,0.6,3.4,1.2c0.8,0.5,1.6,1.1,2.2,1.9c0.7,0.8,1.1,1.6,1.5,2.6c0.3,0.9,0.5,1.9,0.5,3
		c0,3.6-1.8,6.2-5.4,7.9c4.7,1.5,7.1,4.4,7.1,8.7c0,2-0.5,3.8-1.5,5.4c-1,1.6-2.4,2.8-4.2,3.6c-1.1,0.5-2.3,0.8-3.8,1
		C166.1,72.9,164.4,73,162.5,73z M154.5,42.7v9.3h6.6c1.8,0,3.2-0.2,4.2-0.5c1-0.3,1.7-1,2.3-2c0.4-0.7,0.6-1.4,0.6-2.3
		c0-1.8-0.6-3-1.9-3.6c-1.3-0.6-3.2-0.9-5.9-0.9H154.5z M162,57.1h-7.5v10.4h7.8c4.9,0,7.3-1.8,7.3-5.3c0-1.8-0.6-3.1-1.9-3.9
		C166.4,57.5,164.5,57.1,162,57.1z"/>
</g>
<g>
	<g>
		<line class="st1" x1="188.8" y1="14.7" x2="188.8" y2="100.5"/>
		<g>
			<polygon points="188.8,118.2 178.6,93.3 188.8,99.2 198.9,93.3 			"/>
		</g>
	</g>
</g>
<line class="st1" x1="137.5" y1="286.7" x2="137.5" y2="170.2"/>
<path class="st1" d="M137.5,170.2c0-18.2,12.2-33,27.2-33"/>
<path class="st1" d="M191.2,170.2c0-18.2-12.2-33-27.2-33"/>
<g>
	<g>
		<line class="st1" x1="191.2" y1="168.4" x2="191.2" y2="193.4"/>
		<g>
			<polygon points="191.2,212.1 180.4,185.7 191.2,192 201.9,185.7 			"/>
		</g>
	</g>
</g>
<g>
</g>
</svg>
