<?xml version="1.0" encoding="utf-8"?>
<!-- Generator: Adobe Illustrator 21.0.0, SVG Export Plug-In . SVG Version: 6.00 Build 0)  -->
<svg version="1.1" id="Layer_1" xmlns="http://www.w3.org/2000/svg" xmlns:xlink="http://www.w3.org/1999/xlink" x="0px" y="0px"
	 viewBox="0 0 300 300" style="enable-background:new 0 0 300 300;" xml:space="preserve">
<style type="text/css">
	.st0{fill:#B3B3B3;}
	.st1{fill:none;stroke:#000000;stroke-width:5;stroke-miterlimit:10;}
</style>
<g>
	<rect x="1" y="1" class="st0" width="86" height="299"/>
	<path d="M86.5,1.5v298h-85V1.5H86.5 M87.5,0.5h-87v300h87V0.5L87.5,0.5z"/>
</g>
<g>
	<rect x="214" y="1" class="st0" width="86" height="299"/>
	<path d="M299.5,1.5v298h-85V1.5H299.5 M300.5,0.5h-87v300h87V0.5L300.5,0.5z"/>
</g>
<g>
	<path d="M299,1v298H1V1H299 M300,0H0v300h300V0L300,0z"/>
</g>
<g>
	<path d="M157.1,227.7l-1.7-4.5h-14.6l-1.7,4.6c-0.7,1.8-1.2,3-1.7,3.6s-1.2,0.9-2.3,0.9c-0.9,0-1.7-0.3-2.4-1s-1-1.4-1-2.3
		c0-0.5,0.1-1,0.2-1.5c0.2-0.5,0.4-1.2,0.8-2.2l9.1-23.2c0.3-0.7,0.6-1.5,0.9-2.4c0.4-0.9,0.8-1.7,1.2-2.3s1-1.1,1.6-1.5
		c0.7-0.4,1.5-0.6,2.5-0.6s1.9,0.2,2.5,0.6c0.7,0.4,1.2,0.9,1.6,1.5c0.4,0.6,0.8,1.2,1,1.9c0.3,0.7,0.6,1.6,1.1,2.8l9.4,23.1
		c0.7,1.8,1.1,3,1.1,3.8s-0.3,1.6-1,2.3s-1.5,1-2.5,1c-0.6,0-1.1-0.1-1.5-0.3s-0.7-0.5-1-0.8s-0.6-0.9-0.9-1.6
		C157.6,228.9,157.3,228.2,157.1,227.7z M142.7,217.7h10.7l-5.4-14.8L142.7,217.7z"/>
</g>
<g>
	<path d="M193.7,51.2h-10.9c-1.6,0-2.7-0.4-3.4-1.1s-1-1.8-1-3.4V19.9c0-1.6,0.3-2.7,1-3.4c0.7-0.7,1.8-1,3.4-1h11.6
		c1.7,0,3.2,0.1,4.4,0.3c1.3,0.2,2.4,0.6,3.4,1.2c0.8,0.5,1.6,1.1,2.2,1.9c0.7,0.8,1.1,1.6,1.5,2.6c0.3,0.9,0.5,1.9,0.5,3
		c0,3.6-1.8,6.2-5.4,7.9c4.7,1.5,7.1,4.4,7.1,8.7c0,2-0.5,3.8-1.5,5.4c-1,1.6-2.4,2.8-4.2,3.6c-1.1,0.5-2.3,0.8-3.8,1
		C197.3,51.1,195.6,51.2,193.7,51.2z M185.7,20.9v9.3h6.6c1.8,0,3.2-0.2,4.2-0.5s1.7-1,2.3-2c0.4-0.7,0.6-1.4,0.6-2.3
		c0-1.8-0.6-3-1.9-3.6c-1.3-0.6-3.2-0.9-5.9-0.9H185.7z M193.2,35.3h-7.5v10.4h7.8c4.9,0,7.3-1.8,7.3-5.3c0-1.8-0.6-3.1-1.9-3.9
		C197.6,35.7,195.7,35.3,193.2,35.3z"/>
</g>
<g>
	<g>
		<line class="st1" x1="167.8" y1="1" x2="167.8" y2="69.2"/>
		<g>
			<polygon points="167.8,86.9 157.6,62 167.8,67.9 177.9,62 			"/>
		</g>
	</g>
</g>
<g>
	<g>
		<line class="st1" x1="119.4" y1="134.1" x2="119.4" y2="21.1"/>
		<g>
			<polygon points="119.4,3.5 129.6,28.3 119.4,22.4 109.2,28.3 			"/>
		</g>
	</g>
</g>
<line class="st1" x1="116.4" y1="284.1" x2="116.8" y2="201.2"/>
<path class="st1" d="M168.2,139.5c0.3,2.3,0.1,4.6-0.5,6.9"/>
<g>
	<g>
		<line class="st1" x1="168.4" y1="139.7" x2="168.5" y2="107.4"/>
		<g>
			<polygon points="168.6,89.8 178.6,114.7 168.5,108.7 158.3,114.6 			"/>
		</g>
	</g>
</g>
<path class="st1" d="M117.2,203.5c-1.2-3.3-0.1-7.1,1.9-9.9c2-2.8,4.9-4.8,7.7-6.6c8.3-5.3,17-10,24.6-16.3
	c7.6-6.3,14.3-14.5,16.7-24.4"/>
<g>
</g>
</svg>
