<?xml version="1.0" encoding="utf-8"?>
<!-- Generator: Adobe Illustrator 21.0.0, SVG Export Plug-In . SVG Version: 6.00 Build 0)  -->
<svg version="1.1" id="Layer_1" xmlns="http://www.w3.org/2000/svg" xmlns:xlink="http://www.w3.org/1999/xlink" x="0px" y="0px"
	 viewBox="0 0 300 300" style="enable-background:new 0 0 300 300;" xml:space="preserve">
<style type="text/css">
	.st0{fill:#B3B3B3;}
	.st1{fill:none;stroke:#000000;stroke-width:5;stroke-miterlimit:10;}
</style>
<g>
	<rect x="1" y="1" class="st0" width="86" height="299"/>
	<path d="M86.5,1.5v298h-85V1.5H86.5 M87.5,0.5h-87v300h87V0.5L87.5,0.5z"/>
</g>
<g>
	<rect x="214" y="1" class="st0" width="86" height="299"/>
	<path d="M299.5,1.5v298h-85V1.5H299.5 M300.5,0.5h-87v300h87V0.5L300.5,0.5z"/>
</g>
<g>
	<path d="M299,1v298H1V1H299 M300,0H0v300h300V0L300,0z"/>
</g>
<g>
	<path d="M125.4,122.2l-1.7-4.5h-14.6l-1.7,4.6c-0.7,1.8-1.2,3-1.7,3.6s-1.2,0.9-2.3,0.9c-0.9,0-1.7-0.3-2.4-1s-1-1.4-1-2.3
		c0-0.5,0.1-1,0.2-1.5c0.2-0.5,0.4-1.2,0.8-2.2l9.1-23.2c0.3-0.7,0.6-1.5,0.9-2.4c0.4-0.9,0.8-1.7,1.2-2.3s1-1.1,1.6-1.5
		c0.7-0.4,1.5-0.6,2.5-0.6s1.9,0.2,2.5,0.6c0.7,0.4,1.2,0.9,1.6,1.5c0.4,0.6,0.8,1.2,1,1.9c0.3,0.7,0.6,1.6,1.1,2.8l9.4,23.1
		c0.7,1.8,1.1,3,1.1,3.8s-0.3,1.6-1,2.3s-1.5,1-2.5,1c-0.6,0-1.1-0.1-1.5-0.3c-0.4-0.2-0.7-0.5-1-0.8s-0.6-0.9-0.9-1.6
		C125.9,123.4,125.6,122.7,125.4,122.2z M111,112.2h10.7l-5.4-14.8L111,112.2z"/>
</g>
<g>
	<path d="M192.2,126.8h-10.9c-1.6,0-2.7-0.4-3.4-1.1s-1-1.8-1-3.4V95.4c0-1.6,0.3-2.7,1-3.4c0.7-0.7,1.8-1,3.4-1h11.6
		c1.7,0,3.2,0.1,4.4,0.3c1.3,0.2,2.4,0.6,3.4,1.2c0.8,0.5,1.6,1.1,2.2,1.9c0.7,0.8,1.1,1.6,1.5,2.6c0.3,0.9,0.5,1.9,0.5,3
		c0,3.6-1.8,6.2-5.4,7.9c4.7,1.5,7.1,4.4,7.1,8.7c0,2-0.5,3.8-1.5,5.4c-1,1.6-2.4,2.8-4.2,3.6c-1.1,0.5-2.3,0.8-3.8,1
		C195.7,126.7,194.1,126.8,192.2,126.8z M184.1,96.4v9.3h6.6c1.8,0,3.2-0.2,4.2-0.5s1.7-1,2.3-2c0.4-0.7,0.6-1.4,0.6-2.3
		c0-1.8-0.6-3-1.9-3.6c-1.3-0.6-3.2-0.9-5.9-0.9H184.1z M191.6,110.9h-7.5v10.4h7.8c4.9,0,7.3-1.8,7.3-5.3c0-1.8-0.6-3.1-1.9-3.9
		C196,111.3,194.1,110.9,191.6,110.9z"/>
</g>
<path class="st1" d="M109.7,263.5l0.5-54.9c-2-6.9,0.7-12.3,5.2-18.4c4.5-6.1,10.6-11.4,15.8-17.2c5.2-5.8,9.5-12.4,9.7-19.4"/>
<g>
	<g>
		<line class="st1" x1="140.8" y1="156.1" x2="140.8" y2="82.5"/>
		<g>
			<polygon points="140.8,64.9 151,89.7 140.8,83.8 130.7,89.7 			"/>
		</g>
	</g>
</g>
<path class="st1" d="M193.4,263.5l-0.5-54.9c2-6.9-0.7-12.3-5.2-18.4c-4.5-6.1-10.6-11.4-15.8-17.2c-5.2-5.8-9.5-12.4-9.7-19.4"/>
<g>
	<g>
		<line class="st1" x1="162.2" y1="154.9" x2="162.2" y2="81.4"/>
		<g>
			<polygon points="162.2,63.7 172.4,88.6 162.2,82.7 152.1,88.6 			"/>
		</g>
	</g>
</g>
<g>
</g>
</svg>
