<?xml version="1.0" encoding="utf-8"?>
<!-- Generator: Adobe Illustrator 21.0.0, SVG Export Plug-In . SVG Version: 6.00 Build 0)  -->
<svg version="1.1" id="Layer_1" xmlns="http://www.w3.org/2000/svg" xmlns:xlink="http://www.w3.org/1999/xlink" x="0px" y="0px"
	 viewBox="0 0 300 300" style="enable-background:new 0 0 300 300;" xml:space="preserve">
<style type="text/css">
	.st0{fill:#B3B3B3;}
	.st1{fill:none;stroke:#000000;stroke-width:5;stroke-miterlimit:10;}
</style>
<g>
	<rect y="0.6" class="st0" width="86" height="88"/>
	<path d="M85.5,0.8v87.7h-85V0.8H85.5 M86.5,0.5h-87v88.3h87V0.5L86.5,0.5z"/>
</g>
<g>
	<path d="M299,1v298H1V1H299 M300,0H0v300h300V0L300,0z"/>
</g>
<g>
	<rect x="0.5" y="211.8" class="st0" width="86" height="88"/>
	<path d="M86,212v87.7H1V212H86 M87,211.7H0V300h87V211.7L87,211.7z"/>
</g>
<g>
	<rect x="213.5" y="0.6" class="st0" width="86" height="88"/>
	<path d="M299,0.8v87.7h-85V0.8H299 M300,0.5h-87v88.3h87V0.5L300,0.5z"/>
</g>
<g>
	<rect x="213.5" y="211.8" class="st0" width="86" height="88"/>
	<path d="M299,212v87.7h-85V212H299 M300,211.7h-87V300h87V211.7L300,211.7z"/>
</g>
<g>
	<path d="M45.7,197l-1.7-4.5H29.4l-1.7,4.6c-0.7,1.8-1.2,3-1.7,3.6s-1.2,0.9-2.3,0.9c-0.9,0-1.7-0.3-2.4-1s-1-1.4-1-2.3
		c0-0.5,0.1-1,0.2-1.5c0.2-0.5,0.4-1.2,0.8-2.2l9.1-23.2c0.3-0.7,0.6-1.5,0.9-2.4c0.4-0.9,0.8-1.7,1.2-2.3s1-1.1,1.6-1.5
		c0.7-0.4,1.5-0.6,2.5-0.6s1.9,0.2,2.5,0.6c0.7,0.4,1.2,0.9,1.6,1.5c0.4,0.6,0.8,1.2,1,1.9c0.3,0.7,0.6,1.6,1.1,2.8l9.4,23.1
		c0.7,1.8,1.1,3,1.1,3.8s-0.3,1.6-1,2.3c-0.7,0.7-1.5,1-2.5,1c-0.6,0-1.1-0.1-1.5-0.3c-0.4-0.2-0.7-0.5-1-0.8s-0.6-0.9-0.9-1.6
		C46.2,198.2,45.9,197.5,45.7,197z M31.3,187H42l-5.4-14.8L31.3,187z"/>
</g>
<g>
	<path d="M178.2,209.3h-10.9c-1.6,0-2.7-0.4-3.4-1.1c-0.7-0.7-1-1.8-1-3.4v-26.9c0-1.6,0.3-2.7,1-3.4s1.8-1,3.4-1h11.6
		c1.7,0,3.2,0.1,4.4,0.3c1.3,0.2,2.4,0.6,3.4,1.2c0.8,0.5,1.6,1.1,2.2,1.9c0.7,0.8,1.1,1.6,1.5,2.6s0.5,1.9,0.5,3
		c0,3.6-1.8,6.2-5.4,7.9c4.7,1.5,7.1,4.4,7.1,8.7c0,2-0.5,3.8-1.5,5.4c-1,1.6-2.4,2.8-4.2,3.6c-1.1,0.5-2.3,0.8-3.8,1
		C181.7,209.2,180.1,209.3,178.2,209.3z M170.1,178.9v9.3h6.6c1.8,0,3.2-0.2,4.2-0.5s1.7-1,2.3-2c0.4-0.7,0.6-1.4,0.6-2.3
		c0-1.8-0.6-3-1.9-3.6c-1.3-0.6-3.2-0.9-5.9-0.9H170.1z M177.6,193.4h-7.5v10.4h7.8c4.9,0,7.3-1.8,7.3-5.3c0-1.8-0.6-3.1-1.9-3.9
		C182.1,193.8,180.2,193.4,177.6,193.4z"/>
</g>
<line class="st1" x1="119.1" y1="255.2" x2="119.1" y2="299"/>
<g>
	<g>
		<path class="st1" d="M119.1,255.2c0-14.8-1.8-28.1-4.8-37.5"/>
		<g>
			<polygon points="103.7,203.6 126.2,218.3 114.5,219.2 109.5,229.8 			"/>
		</g>
	</g>
</g>
<line class="st1" x1="14.5" y1="150.5" x2="66.1" y2="150.5"/>
<g>
	<g>
		<path class="st1" d="M96.8,181.5c-7.7-19.6-25.2-32.7-44.6-31.3"/>
		<g>
			<polygon points="100.7,198.8 104.7,172.2 96.2,180.3 84.9,177 			"/>
		</g>
	</g>
</g>
<g>
	<g>
		<path class="st1" d="M129.2,136.8c-13.8,8.2-39.5,13.6-68.9,13.6"/>
		<g>
			<polygon points="140.1,122.9 116.2,135.2 127.7,137.3 131.6,148.4 			"/>
		</g>
	</g>
</g>
<line class="st1" x1="198.5" y1="0.6" x2="198.5" y2="69.3"/>
<g>
	<g>
		<path class="st1" d="M197.7,66.6c5.5,16.2-12.3,37.4-41.2,51.4"/>
		<g>
			<polygon points="140.1,124.6 159.1,105.6 157.6,117.3 166.9,124.4 			"/>
		</g>
	</g>
</g>
<g>
</g>
</svg>
